<svg width="24" height="41" xmlns="http://www.w3.org/2000/svg" xmlns:xlink="http://www.w3.org/1999/xlink" xmlns:svgjs="http://svgjs.com/svgjs" viewBox="0.213 0 23.575 41" fill="#d4d4d4"><svg xmlns="http://www.w3.org/2000/svg" width="24" height="41" viewBox="1 1 23 40"><path paint-order="stroke fill markers" fill-rule="evenodd" d="M2.002 6.024l15.064 14.97-15.26 15.165v.001A2.837 2.837 0 0 0 1 38.143 2.866 2.866 0 0 0 3.875 41c.775 0 1.478-.305 1.995-.801h.001l17.25-17.142A2.84 2.84 0 0 0 24 21L24 20.994v-.006a2.84 2.84 0 0 0-.88-2.057h.001L5.871 1.787l-.007.008A2.874 2.874 0 0 0 3.875 1 2.866 2.866 0 0 0 1 3.857c0 .867.389 1.643 1.002 2.167z"/></svg></svg>