<svg id="Layer_1" height="512" viewBox="0 0 90 90" width="512" xmlns="http://www.w3.org/2000/svg" data-name="Layer 1"><path d="m45 75.738a1 1 0 0 1 -.2-.019c-11.4-2.288-32.8-25.953-32.8-43.15a18.307 18.307 0 0 1 33-10.92 18.307 18.307 0 0 1 33 10.92c0 16.9-22.441 40.239-32.729 43.132a1 1 0 0 1 -.271.037zm-14.693-59.476a16.325 16.325 0 0 0 -16.307 16.307c0 15.955 20.317 38.731 30.96 41.139 9.687-2.987 31.04-25.463 31.04-41.139a16.306 16.306 0 0 0 -30.151-8.614 1.04 1.04 0 0 1 -1.7 0 16.218 16.218 0 0 0 -13.842-7.693z"/><path d="m19 33.569a1 1 0 0 1 -1-1 12.321 12.321 0 0 1 12.307-12.307 1 1 0 1 1 0 2 10.318 10.318 0 0 0 -10.307 10.307 1 1 0 0 1 -1 1z"/></svg>