<svg height="512" viewBox="0 0 90 90" width="512" xmlns="http://www.w3.org/2000/svg" data-name="Layer 1"><path d="M45 75.738a1 1 0 01-.2-.019C33.4 73.431 12 49.766 12 32.569a18.307 18.307 0 0133-10.92 18.307 18.307 0 0133 10.92c0 16.9-22.441 40.239-32.729 43.132a1 1 0 01-.271.037zM30.307 16.262A16.325 16.325 0 0014 32.569C14 48.524 34.317 71.3 44.96 73.708 54.647 70.721 76 48.245 76 32.569a16.306 16.306 0 00-30.151-8.614 1.04 1.04 0 01-1.7 0 16.218 16.218 0 00-13.842-7.693z"/><path d="M19 33.569a1 1 0 01-1-1 12.321 12.321 0 0112.307-12.307 1 1 0 110 2A10.318 10.318 0 0020 32.569a1 1 0 01-1 1z"/></svg>