<svg width="45" height="45" fill="none" xmlns="http://www.w3.org/2000/svg"><path d="M37.266 11.602H17.578v1.406h19.688v-1.406zM37.266 21.797H17.578v1.406h19.688v-1.406zM37.266 31.992H17.578v1.406h19.688v-1.406zM11.953 10.195a1.41 1.41 0 011.406 1.407v1.406a1.41 1.41 0 01-1.406 1.406h-1.406a1.41 1.41 0 01-1.406-1.406v-1.406a1.41 1.41 0 011.406-1.407h1.406zm0-1.406h-1.406a2.82 2.82 0 00-2.813 2.813v1.406a2.82 2.82 0 002.813 2.812h1.406a2.82 2.82 0 002.813-2.812v-1.406a2.82 2.82 0 00-2.813-2.813zM11.953 20.39a1.41 1.41 0 011.406 1.407v1.406a1.41 1.41 0 01-1.406 1.406h-1.406a1.41 1.41 0 01-1.406-1.406v-1.406a1.41 1.41 0 011.406-1.406h1.406zm0-1.406h-1.406a2.82 2.82 0 00-2.813 2.813v1.406a2.82 2.82 0 002.813 2.813h1.406a2.82 2.82 0 002.813-2.813v-1.406a2.82 2.82 0 00-2.813-2.813zM11.953 30.586a1.41 1.41 0 011.406 1.406v1.406a1.41 1.41 0 01-1.406 1.407h-1.406a1.41 1.41 0 01-1.406-1.407v-1.406a1.41 1.41 0 011.406-1.406h1.406zm0-1.406h-1.406a2.82 2.82 0 00-2.813 2.812v1.406a2.82 2.82 0 002.813 2.813h1.406a2.82 2.82 0 002.813-2.813v-1.406a2.82 2.82 0 00-2.813-2.812z" fill="#fff"/></svg>