<svg width="28" height="35" fill="none" xmlns="http://www.w3.org/2000/svg"><path d="M17.946 23.422c-.116-1.29-.072-2.19-.072-3.368.584-.306 1.63-2.26 1.808-3.91.459-.038 1.183-.486 1.395-2.254.114-.95-.34-1.484-.617-1.652.747-2.248 2.3-9.2-2.87-9.918-.532-.934-1.895-1.407-3.665-1.407-7.083.13-7.938 5.349-6.385 11.325-.276.168-.73.702-.617 1.652.213 1.768.936 2.216 1.395 2.254.176 1.65 1.264 3.604 1.85 3.91 0 1.179.044 2.079-.073 3.368-1.009 2.712-6.19 2.924-9.178 5.54 3.125 3.146 8.189 5.396 13.533 5.396 5.344 0 11.625-4.219 12.67-5.37-2.97-2.64-8.162-2.844-9.174-5.566z" fill="#000"/></svg>